<mxfile host="app.diagrams.net" modified="2024-03-12T14:46:49.940Z" agent="Mozilla/5.0 (Windows NT 10.0; Win64; x64) AppleWebKit/537.36 (KHTML, like Gecko) Chrome/122.0.0.0 Safari/537.36 Edg/122.0.0.0" etag="IHpIHmvYTIaCmjzPUfCl" version="24.0.2" type="github">
  <diagram name="Page-1" id="rMI9ILKAxYMHE1CgJgTn">
    <mxGraphModel dx="1508" dy="861" grid="1" gridSize="10" guides="1" tooltips="1" connect="1" arrows="1" fold="1" page="1" pageScale="1" pageWidth="827" pageHeight="1169" math="0" shadow="0">
      <root>
        <mxCell id="0" />
        <mxCell id="1" parent="0" />
      </root>
    </mxGraphModel>
  </diagram>
</mxfile>
